<?xml version="1.0" encoding="UTF-8"?>
<svg width="106px" height="119px" viewBox="0 0 106 119" version="1.1" xmlns="http://www.w3.org/2000/svg" xmlns:xlink="http://www.w3.org/1999/xlink">
    <title>logo</title>
    <g id="Page-1" stroke="none" stroke-width="1" fill="none" fill-rule="evenodd">
        <g id="logo" fill="#000000" fill-rule="nonzero">
            <path d="M45.495711,52.427896 L31.558878,52.427896 C29.912385,52.427896 29.364248,52.342445 28.518076,52.090261 C26.24008,51.41499 24.464369,49.13491 24.464369,46.431743 C24.464369,43.728577 26.24008,41.448497 28.518076,40.773226 C29.364248,40.518958 29.912385,40.435591 31.558878,40.435591 L40.595832,40.435591 L40.595832,31.398637 C40.595832,29.75006 40.681283,29.201924 40.935551,28.357836 C41.610822,26.033988 43.890902,24.302044 46.591984,24.302044 C49.29515,24.302044 51.577315,26.075671 52.252585,28.357836 C52.50477,29.201924 52.59022,29.75006 52.59022,31.398637 L52.59022,45.333387 C52.59022,46.177475 52.59022,47.023647 52.421403,47.782285 C51.956633,49.895631 50.055872,51.794309 47.944609,52.259078 C47.185972,52.427896 46.3398,52.427896 45.495711,52.427896 L45.495711,52.427896 Z M90.259479,103.610902 L15.512866,103.610902 L15.512866,37.774108 C15.512866,36.93002 15.808818,36.213066 16.398637,35.621162 L35.783487,16.236313 C36.373307,15.646493 37.092345,15.350541 37.936433,15.350541 L90.259479,15.350541 L90.259479,103.610902 Z M4.195832,26.711343 C2.209619,28.695471 0.902846,31.188136 0.646493,33.974669 C0.60481,34.439439 0.563126,35.114709 0.563126,35.78998 L0.563126,110.240641 C0.563126,111.211864 0.60481,111.718317 0.646493,112.099719 C0.986212,115.265571 3.856112,118.137555 7.024048,118.47519 C7.405451,118.516874 7.911904,118.560641 8.883126,118.560641 L96.889218,118.560641 C97.860441,118.560641 98.366894,118.516874 98.748297,118.47519 C101.914148,118.137555 104.786132,115.265571 105.123768,112.099719 C105.167535,111.718317 105.207134,111.211864 105.207134,110.240641 L105.207134,8.720802 C105.207134,7.749579 105.167535,7.243126 105.123768,6.861723 C104.786132,3.695872 101.914148,0.823888 98.748297,0.486253 C98.366894,0.444569 97.860441,0.400802 96.889218,0.400802 L35.952305,0.400802 C35.277034,0.400802 34.599679,0.444569 34.136994,0.486253 C31.348377,0.738437 28.857796,2.047295 26.871583,4.033507 L4.195832,26.711343 Z" id="Shape"></path>
        </g>
    </g>
</svg>