<svg width="72" height="17" viewBox="0 0 72 17" fill="none" xmlns="http://www.w3.org/2000/svg">
<path d="M4.31641 0.92V12.68H9.01641V16H0.396406V0.92H4.31641ZM16.0609 10.84C16.0609 11.1733 16.1209 11.4867 16.2409 11.78C16.3609 12.06 16.5209 12.3067 16.7209 12.52C16.9343 12.7333 17.1809 12.9 17.4609 13.02C17.7543 13.14 18.0676 13.2 18.4009 13.2C18.7209 13.2 19.0209 13.14 19.3009 13.02C19.5943 12.9 19.8409 12.7333 20.0409 12.52C20.2543 12.3067 20.4209 12.06 20.5409 11.78C20.6743 11.5 20.7409 11.2 20.7409 10.88C20.7409 10.56 20.6743 10.26 20.5409 9.98C20.4209 9.68667 20.2543 9.43333 20.0409 9.22C19.8409 9.00667 19.5943 8.84 19.3009 8.72C19.0209 8.6 18.7209 8.54 18.4009 8.54C18.0676 8.54 17.7543 8.6 17.4609 8.72C17.1809 8.84 16.9343 9.00667 16.7209 9.22C16.5209 9.43333 16.3609 9.68 16.2409 9.96C16.1209 10.2267 16.0609 10.52 16.0609 10.84ZM20.6209 5.74H24.2609V16H20.6209V14.86C19.8476 15.8333 18.8009 16.32 17.4809 16.32C16.7343 16.32 16.0476 16.1867 15.4209 15.92C14.7943 15.64 14.2476 15.2533 13.7809 14.76C13.3143 14.2667 12.9476 13.6867 12.6809 13.02C12.4276 12.3533 12.3009 11.6267 12.3009 10.84C12.3009 10.1067 12.4276 9.41333 12.6809 8.76C12.9343 8.09333 13.2876 7.51333 13.7409 7.02C14.1943 6.52667 14.7343 6.14 15.3609 5.86C15.9876 5.56667 16.6809 5.42 17.4409 5.42C18.7209 5.42 19.7809 5.86667 20.6209 6.76V5.74ZM32.7644 8.76V16H29.1444V8.76H27.9444V5.74H29.1444V2.66H32.7644V5.74H34.8244V8.76H32.7644ZM45.8806 9.38C45.7606 8.87333 45.514 8.46667 45.1406 8.16C44.7673 7.85333 44.314 7.7 43.7806 7.7C43.2206 7.7 42.7606 7.84667 42.4006 8.14C42.054 8.43333 41.834 8.84667 41.7406 9.38H45.8806ZM41.6406 11.48C41.6406 13.04 42.374 13.82 43.8406 13.82C44.6273 13.82 45.2206 13.5 45.6206 12.86H49.1206C48.414 15.2067 46.6473 16.38 43.8206 16.38C42.954 16.38 42.1606 16.2533 41.4406 16C40.7206 15.7333 40.1006 15.36 39.5806 14.88C39.074 14.4 38.6806 13.8267 38.4006 13.16C38.1206 12.4933 37.9806 11.7467 37.9806 10.92C37.9806 10.0667 38.114 9.3 38.3806 8.62C38.6473 7.92667 39.0273 7.34 39.5206 6.86C40.014 6.38 40.6073 6.01333 41.3006 5.76C42.0073 5.49333 42.8006 5.36 43.6806 5.36C44.5473 5.36 45.3273 5.49333 46.0206 5.76C46.714 6.01333 47.3006 6.38667 47.7806 6.88C48.2606 7.37333 48.6273 7.98 48.8806 8.7C49.134 9.40667 49.2606 10.2067 49.2606 11.1V11.48H41.6406ZM60.1298 8.38C59.4632 8.03333 58.8098 7.86 58.1698 7.86C57.8365 7.86 57.5632 7.92667 57.3498 8.06C57.1498 8.19333 57.0498 8.37333 57.0498 8.6C57.0498 8.72 57.0632 8.82 57.0898 8.9C57.1298 8.96667 57.2032 9.03333 57.3098 9.1C57.4298 9.16667 57.5965 9.22667 57.8098 9.28C58.0365 9.33333 58.3298 9.4 58.6898 9.48C59.6898 9.68 60.4365 10.04 60.9298 10.56C61.4232 11.0667 61.6698 11.72 61.6698 12.52C61.6698 13.12 61.5498 13.66 61.3098 14.14C61.0698 14.62 60.7365 15.0267 60.3098 15.36C59.8832 15.68 59.3698 15.9267 58.7698 16.1C58.1698 16.2867 57.5098 16.38 56.7898 16.38C55.4032 16.38 54.0365 15.9867 52.6898 15.2L54.0098 12.64C55.0232 13.3333 55.9832 13.68 56.8898 13.68C57.2232 13.68 57.4965 13.6067 57.7098 13.46C57.9232 13.3133 58.0298 13.1267 58.0298 12.9C58.0298 12.7667 58.0098 12.66 57.9698 12.58C57.9432 12.4867 57.8765 12.4067 57.7698 12.34C57.6632 12.26 57.5032 12.1933 57.2898 12.14C57.0898 12.0733 56.8232 12.0067 56.4898 11.94C55.3698 11.7133 54.5832 11.38 54.1298 10.94C53.6898 10.4867 53.4698 9.86667 53.4698 9.08C53.4698 8.50667 53.5765 7.99333 53.7898 7.54C54.0032 7.07333 54.3098 6.68 54.7098 6.36C55.1098 6.04 55.5898 5.79333 56.1498 5.62C56.7232 5.44667 57.3565 5.36 58.0498 5.36C59.1832 5.36 60.2832 5.58 61.3498 6.02L60.1298 8.38ZM69.8191 8.76V16H66.1991V8.76H64.9991V5.74H66.1991V2.66H69.8191V5.74H71.8791V8.76H69.8191Z" fill="black"/>
</svg>
