<svg width="480" height="272" viewBox="0 0 480 272" fill="none" xmlns="http://www.w3.org/2000/svg">
<path d="M231.234 5.78125L237.188 85H226.969L223.734 38.875L195.703 90.0625L180.188 38.875L165.75 85H154.781L179.812 7.51562L198.141 66.6719L231.234 5.78125ZM298.266 40.8438L292.828 85H282.469L283.078 80.2188C278.641 84.0938 274.047 86.0312 269.297 86.0312C263.453 86.0312 258.688 84.0469 255 80.0781C251.312 76.1094 249.469 70.9688 249.469 64.6562C249.469 57.375 251.578 51.4062 255.797 46.75C260.078 42.0938 265.562 39.7656 272.25 39.7656C275.406 39.7656 278.094 40.2812 280.312 41.3125C282.562 42.3438 284.859 44.125 287.203 46.6562L287.906 40.8438H298.266ZM285.656 61.6562C285.656 57.75 284.531 54.5781 282.281 52.1406C280.031 49.6719 277.125 48.4375 273.562 48.4375C269.688 48.4375 266.438 49.9531 263.812 52.9844C261.188 56.0469 259.875 59.7969 259.875 64.2344C259.875 68.1094 260.969 71.2812 263.156 73.75C265.344 76.2188 268.156 77.4531 271.594 77.4531C275.406 77.4531 278.703 75.9062 281.484 72.8125C284.266 69.6562 285.656 65.9375 285.656 61.6562ZM326.344 19.8438C326.344 21.3438 325.797 22.6406 324.703 23.7344C323.609 24.8281 322.297 25.375 320.766 25.375C319.234 25.375 317.906 24.8125 316.781 23.6875C315.688 22.5 315.141 21.1406 315.141 19.6094C315.141 18.0781 315.672 16.7813 316.734 15.7188C317.828 14.625 319.125 14.0781 320.625 14.0781C322.156 14.0781 323.484 14.6562 324.609 15.8125C325.766 16.9375 326.344 18.2813 326.344 19.8438ZM323.109 40.8438L317.672 85H307.312L312.75 40.8438H323.109ZM69.4688 108.625L28.2656 184.281L5.48438 108.625H16.3594L31.3594 159.062L57.8906 108.625H69.4688ZM110.766 136.844L105.328 181H94.9688L95.5781 176.219C91.1406 180.094 86.5469 182.031 81.7969 182.031C75.9531 182.031 71.1875 180.047 67.5 176.078C63.8125 172.109 61.9688 166.969 61.9688 160.656C61.9688 153.375 64.0781 147.406 68.2969 142.75C72.5781 138.094 78.0625 135.766 84.75 135.766C87.9062 135.766 90.5938 136.281 92.8125 137.312C95.0625 138.344 97.3594 140.125 99.7031 142.656L100.406 136.844H110.766ZM98.1562 157.656C98.1562 153.75 97.0312 150.578 94.7812 148.141C92.5312 145.672 89.625 144.438 86.0625 144.438C82.1875 144.438 78.9375 145.953 76.3125 148.984C73.6875 152.047 72.375 155.797 72.375 160.234C72.375 164.109 73.4688 167.281 75.6562 169.75C77.8438 172.219 80.6562 173.453 84.0938 173.453C87.9062 173.453 91.2031 171.906 93.9844 168.812C96.7656 165.656 98.1562 161.938 98.1562 157.656ZM139.922 101.828L130.219 181H119.859L129.609 101.828H139.922ZM198.891 101.828L189.141 181H178.828L179.391 176.266C176.828 178.547 174.609 180.094 172.734 180.906C170.891 181.656 168.609 182.031 165.891 182.031C159.703 182.031 154.641 179.984 150.703 175.891C146.766 171.766 144.797 166.453 144.797 159.953C144.797 153.016 146.953 147.25 151.266 142.656C155.578 138.062 161 135.766 167.531 135.766C170.875 135.766 173.688 136.344 175.969 137.5C178.344 138.688 180.828 140.703 183.422 143.547L188.531 101.828H198.891ZM181.828 157C181.828 153.25 180.672 150.219 178.359 147.906C176.047 145.594 173.016 144.438 169.266 144.438C165.203 144.438 161.844 145.953 159.188 148.984C156.531 152.016 155.203 155.844 155.203 160.469C155.203 164.375 156.344 167.516 158.625 169.891C160.906 172.234 163.938 173.406 167.719 173.406C171.656 173.406 174.984 171.812 177.703 168.625C180.453 165.5 181.828 161.625 181.828 157ZM215.016 162.625C215.016 165.875 216.141 168.547 218.391 170.641C220.672 172.734 223.578 173.781 227.109 173.781C231.953 173.781 235.672 171.969 238.266 168.344L246 172.609C243.312 176.234 240.547 178.766 237.703 180.203C234.828 181.672 231.234 182.406 226.922 182.406C220.078 182.406 214.625 180.391 210.562 176.359C206.5 172.328 204.469 166.938 204.469 160.188C204.469 153.125 206.703 147.219 211.172 142.469C215.609 137.75 221.219 135.391 228 135.391C234.562 135.391 239.734 137.516 243.516 141.766C247.359 146.047 249.281 151.781 249.281 158.969C249.281 159.719 249.234 160.938 249.141 162.625H215.016ZM238.781 154.281C237.688 147.469 233.922 144.062 227.484 144.062C221.391 144.062 217.422 147.469 215.578 154.281H238.781ZM274.078 136.844L273.609 140.922C277.703 137.484 281.844 135.766 286.031 135.766C290.344 135.766 293.797 136.969 296.391 139.375C298.922 141.781 300.188 145.062 300.188 149.219C300.188 151.469 300 154.156 299.625 157.281L296.672 181H286.359L289.547 155.031C289.672 154.062 289.75 153.203 289.781 152.453C289.844 151.703 289.875 151.031 289.875 150.438C289.875 146.438 287.719 144.438 283.406 144.438C280.75 144.438 278.469 145.25 276.562 146.875C275 148.156 273.844 149.719 273.094 151.562C272.688 152.5 272.344 153.656 272.062 155.031C271.781 156.375 271.531 157.938 271.312 159.719L268.688 181H258.328L263.766 136.844H274.078ZM359.953 136.844L354.516 181H344.156L344.766 176.219C340.328 180.094 335.734 182.031 330.984 182.031C325.141 182.031 320.375 180.047 316.688 176.078C313 172.109 311.156 166.969 311.156 160.656C311.156 153.375 313.266 147.406 317.484 142.75C321.766 138.094 327.25 135.766 333.938 135.766C337.094 135.766 339.781 136.281 342 137.312C344.25 138.344 346.547 140.125 348.891 142.656L349.594 136.844H359.953ZM347.344 157.656C347.344 153.75 346.219 150.578 343.969 148.141C341.719 145.672 338.812 144.438 335.25 144.438C331.375 144.438 328.125 145.953 325.5 148.984C322.875 152.047 321.562 155.797 321.562 160.234C321.562 164.109 322.656 167.281 324.844 169.75C327.031 172.219 329.844 173.453 333.281 173.453C337.094 173.453 340.391 171.906 343.172 168.812C345.953 165.656 347.344 161.938 347.344 157.656ZM388.031 115.844C388.031 117.344 387.484 118.641 386.391 119.734C385.297 120.828 383.984 121.375 382.453 121.375C380.922 121.375 379.594 120.812 378.469 119.688C377.375 118.5 376.828 117.141 376.828 115.609C376.828 114.078 377.359 112.781 378.422 111.719C379.516 110.625 380.812 110.078 382.312 110.078C383.844 110.078 385.172 110.656 386.297 111.812C387.453 112.938 388.031 114.281 388.031 115.844ZM384.797 136.844L379.359 181H369L374.438 136.844H384.797ZM409.688 136.844L409.219 140.641C412.719 137.328 416.25 135.672 419.812 135.672C422.938 135.672 425.781 136.812 428.344 139.094L421.734 147.625C419.828 146 417.922 145.188 416.016 145.188C414.703 145.188 413.547 145.453 412.547 145.984C411.547 146.484 410.672 147.297 409.922 148.422C409.203 149.516 408.594 150.938 408.094 152.688C407.625 154.438 407.25 156.531 406.969 158.969L404.25 181H393.891L399.328 136.844H409.688ZM440.672 162.625C440.672 165.875 441.797 168.547 444.047 170.641C446.328 172.734 449.234 173.781 452.766 173.781C457.609 173.781 461.328 171.969 463.922 168.344L471.656 172.609C468.969 176.234 466.203 178.766 463.359 180.203C460.484 181.672 456.891 182.406 452.578 182.406C445.734 182.406 440.281 180.391 436.219 176.359C432.156 172.328 430.125 166.938 430.125 160.188C430.125 153.125 432.359 147.219 436.828 142.469C441.266 137.75 446.875 135.391 453.656 135.391C460.219 135.391 465.391 137.516 469.172 141.766C473.016 146.047 474.938 151.781 474.938 158.969C474.938 159.719 474.891 160.938 474.797 162.625H440.672ZM464.438 154.281C463.344 147.469 459.578 144.062 453.141 144.062C447.047 144.062 443.078 147.469 441.234 154.281H464.438Z" fill="#F4B1C2"/>
<path d="M182.591 224.32H189.621C192.676 224.32 195.004 224.829 196.606 225.848C197.924 226.671 198.957 227.832 199.706 229.329C200.455 230.871 200.829 232.496 200.829 234.203C200.829 236.689 200.133 238.875 198.74 240.762C196.674 243.562 193.417 244.962 188.97 244.962H185.174L183.444 259H178.301L182.591 224.32ZM187.128 229.104L185.735 240.402H189.082C191.193 240.402 192.811 239.863 193.934 238.785C195.072 237.692 195.641 236.12 195.641 234.068C195.641 230.759 193.529 229.104 189.307 229.104H187.128ZM210.847 237.842L210.622 239.661C212.299 238.074 213.991 237.28 215.698 237.28C217.196 237.28 218.558 237.827 219.786 238.92L216.619 243.008C215.706 242.229 214.792 241.84 213.879 241.84C213.25 241.84 212.696 241.967 212.217 242.222C211.738 242.461 211.318 242.851 210.959 243.39C210.615 243.914 210.323 244.595 210.083 245.434C209.858 246.272 209.679 247.275 209.544 248.443L208.241 259H203.277L205.883 237.842H210.847ZM243.932 248.219C243.932 251.453 242.809 254.171 240.562 256.372C238.331 258.573 235.576 259.674 232.297 259.674C228.868 259.674 226.068 258.633 223.896 256.552C221.71 254.455 220.617 251.805 220.617 248.601C220.617 245.321 221.748 242.596 224.009 240.425C226.285 238.239 229.13 237.146 232.544 237.146C235.898 237.146 238.631 238.179 240.742 240.245C242.868 242.282 243.932 244.939 243.932 248.219ZM238.923 247.972C238.923 245.935 238.331 244.326 237.148 243.143C235.965 241.915 234.416 241.301 232.499 241.301C230.507 241.301 228.86 241.982 227.558 243.345C226.255 244.722 225.604 246.452 225.604 248.533C225.604 250.63 226.217 252.314 227.445 253.587C228.673 254.89 230.26 255.541 232.207 255.541C234.154 255.541 235.756 254.83 237.014 253.407C238.286 252 238.923 250.188 238.923 247.972ZM270.144 228.206C270.144 228.58 270.121 228.947 270.076 229.307L269.829 231.351H264.775L265.022 229.307C265.037 229.187 265.045 229.082 265.045 228.992C265.06 228.902 265.067 228.82 265.067 228.745C265.067 227.727 264.745 226.873 264.102 226.185C263.473 225.466 262.657 225.106 261.653 225.106C260.545 225.106 259.572 225.526 258.733 226.364C257.895 227.203 257.408 228.184 257.273 229.307L256.218 237.842H262.013L261.429 242.559H255.634L253.635 259H248.581L250.58 242.559H248.783L249.367 237.842H251.164L252.22 229.307C252.519 226.851 253.65 224.755 255.611 223.018C257.558 221.266 259.774 220.39 262.26 220.39C264.506 220.39 266.378 221.138 267.875 222.636C269.387 224.118 270.144 225.975 270.144 228.206ZM269.021 237.842L266.438 259H261.384L263.967 237.842H269.021ZM282.295 221.063L277.646 259H272.682L277.354 221.063H282.295ZM289.662 250.195C289.662 251.753 290.201 253.033 291.279 254.036C292.372 255.039 293.765 255.541 295.457 255.541C297.778 255.541 299.56 254.673 300.803 252.936L304.509 254.979C303.221 256.716 301.896 257.929 300.533 258.618C299.156 259.322 297.434 259.674 295.367 259.674C292.088 259.674 289.475 258.708 287.528 256.776C285.582 254.845 284.608 252.262 284.608 249.027C284.608 245.643 285.679 242.813 287.82 240.537C289.947 238.276 292.634 237.146 295.884 237.146C299.028 237.146 301.507 238.164 303.318 240.2C305.16 242.252 306.081 244.999 306.081 248.443C306.081 248.803 306.059 249.387 306.014 250.195H289.662ZM301.05 246.197C300.526 242.933 298.721 241.301 295.637 241.301C292.717 241.301 290.815 242.933 289.932 246.197H301.05Z" fill="#F4B1C2"/>
</svg>
