<svg width="136" height="29" viewBox="0 0 136 29" fill="none" xmlns="http://www.w3.org/2000/svg">
<path d="M17.8755 17.92L14.7075 8.884L11.5395 17.92H17.8755ZM19.7475 23.284H9.66748L8.04748 28H0.523484L10.8555 0.856H18.5595L28.8915 28H21.3675L19.7475 23.284ZM39.0348 22.528H40.5828C42.3588 22.528 43.6308 22.3 44.3988 21.844C45.1668 21.388 45.5508 20.656 45.5508 19.648C45.5508 18.64 45.1668 17.908 44.3988 17.452C43.6308 16.996 42.3588 16.768 40.5828 16.768H39.0348V22.528ZM39.0348 11.512H40.3308C42.5388 11.512 43.6428 10.636 43.6428 8.884C43.6428 7.132 42.5388 6.256 40.3308 6.256H39.0348V11.512ZM31.9788 0.856H42.4908C44.9868 0.856 46.8828 1.456 48.1788 2.656C49.4748 3.856 50.1228 5.584 50.1228 7.84C50.1228 9.208 49.8708 10.348 49.3668 11.26C48.8868 12.148 48.1428 12.904 47.1348 13.528C48.1428 13.72 48.9948 14.02 49.6908 14.428C50.4108 14.812 50.9868 15.292 51.4188 15.868C51.8748 16.444 52.1988 17.092 52.3908 17.812C52.5828 18.532 52.6788 19.3 52.6788 20.116C52.6788 21.388 52.4508 22.516 51.9948 23.5C51.5628 24.484 50.9388 25.312 50.1228 25.984C49.3308 26.656 48.3588 27.16 47.2068 27.496C46.0548 27.832 44.7588 28 43.3188 28H31.9788V0.856ZM62.8496 14.428C62.8496 15.508 63.0536 16.504 63.4616 17.416C63.8696 18.328 64.4216 19.12 65.1176 19.792C65.8136 20.464 66.6176 20.992 67.5296 21.376C68.4656 21.736 69.4496 21.916 70.4816 21.916C71.5136 21.916 72.4856 21.736 73.3976 21.376C74.3336 20.992 75.1496 20.464 75.8456 19.792C76.5656 19.12 77.1296 18.328 77.5376 17.416C77.9456 16.504 78.1496 15.508 78.1496 14.428C78.1496 13.348 77.9456 12.352 77.5376 11.44C77.1296 10.528 76.5656 9.736 75.8456 9.064C75.1496 8.392 74.3336 7.876 73.3976 7.516C72.4856 7.132 71.5136 6.94 70.4816 6.94C69.4496 6.94 68.4656 7.132 67.5296 7.516C66.6176 7.876 65.8136 8.392 65.1176 9.064C64.4216 9.736 63.8696 10.528 63.4616 11.44C63.0536 12.352 62.8496 13.348 62.8496 14.428ZM55.4696 14.428C55.4696 12.412 55.8416 10.54 56.5856 8.812C57.3296 7.06 58.3616 5.536 59.6816 4.24C61.0016 2.944 62.5736 1.936 64.3976 1.216C66.2456 0.471999 68.2736 0.0999987 70.4816 0.0999987C72.6656 0.0999987 74.6816 0.471999 76.5296 1.216C78.3776 1.936 79.9616 2.944 81.2816 4.24C82.6256 5.536 83.6696 7.06 84.4136 8.812C85.1576 10.54 85.5296 12.412 85.5296 14.428C85.5296 16.444 85.1576 18.328 84.4136 20.08C83.6696 21.808 82.6256 23.32 81.2816 24.616C79.9616 25.912 78.3776 26.932 76.5296 27.676C74.6816 28.396 72.6656 28.756 70.4816 28.756C68.2736 28.756 66.2456 28.396 64.3976 27.676C62.5736 26.932 61.0016 25.912 59.6816 24.616C58.3616 23.32 57.3296 21.808 56.5856 20.08C55.8416 18.328 55.4696 16.444 55.4696 14.428ZM97.0426 0.856V15.616C97.0426 16.408 97.0666 17.224 97.1146 18.064C97.1866 18.88 97.3666 19.624 97.6546 20.296C97.9666 20.968 98.4466 21.52 99.0946 21.952C99.7426 22.36 100.655 22.564 101.831 22.564C103.007 22.564 103.907 22.36 104.531 21.952C105.179 21.52 105.659 20.968 105.971 20.296C106.283 19.624 106.463 18.88 106.511 18.064C106.583 17.224 106.619 16.408 106.619 15.616V0.856H113.639V16.588C113.639 20.812 112.667 23.896 110.723 25.84C108.803 27.784 105.839 28.756 101.831 28.756C97.8226 28.756 94.8466 27.784 92.9026 25.84C90.9586 23.896 89.9866 20.812 89.9866 16.588V0.856H97.0426ZM129.638 6.832V28H122.582V6.832H116.786V0.856H135.434V6.832H129.638Z" fill="black"/>
</svg>
